# xmcd
#
# Track frame offsets: 
#        150
#        16412
#        31047
#        49240
#        77849
#        91206
#        116350
#        139021
#        152157
#
# Disc length: 2249 seconds
#
# Revision: 0
# Processed by: cddbd v1.5.2PL0 Copyright (c) Steve Scherf et al.
# Submitted via: ExactAudioCopy v0.95a5
#
DISCID=6408c709
DTITLE=Hot Tamales Trio - 
DYEAR=2016
DGENRE=Blues
TTITLE0=Glance
TTITLE1=Patient
TTITLE2=Fair
TTITLE3=A Dream Within A Dream
TTITLE4=Peculiar Love Suprise
TTITLE5=Pining Blues
TTITLE6=Flies
TTITLE7=Workable
TTITLE8=Home Of Blues
EXTD=
EXTT0=
EXTT1=
EXTT2=
EXTT3=
EXTT4=
EXTT5=
EXTT6=
EXTT7=
EXTT8=
PLAYORDER=
